<?xml version="1.0" encoding="UTF-8"?>
<svg id="Capa_2" data-name="Capa 2" xmlns="http://www.w3.org/2000/svg" viewBox="0 0 201.46 90.45">
  <defs>
    <style>
      .cls-1 {
        fill: #86858a;
      }

      .cls-2 {
        fill: #6f8cc0;
      }
    </style>
  </defs>
  <g id="Capa_3" data-name="Capa 3">
    <g>
      <path class="cls-1" d="M0,18.4h7.88v5.86H0v-5.86ZM0,28.2h7.88v32.73H0V28.2Z"/>
      <g>
        <path class="cls-1" d="M34.32,38.87c0-3.07-1.53-4.65-4.11-4.65s-4.1,1.43-6.95,4.1v22.61h-7.88V28.2h7.88v4.87c2.63-2.53,6.19-5.54,10.95-5.54,6.4,0,7.99,4.82,7.99,9.64v23.75h-7.88v-22.06Z"/>
        <path class="cls-1" d="M65.84,37.17c-.44-1.59-1.26-4.38-5.69-4.38-2.14,0-4.27,1.09-4.27,3.66,0,2.41,2.03,3.07,3.45,3.56l6.3,2.08c4.43,1.43,7.39,4.06,7.39,8.92,0,8.49-6.85,10.57-13.96,10.57-8.43,0-10.95-5.47-11.61-8.32l6.73-2.08c.88,3.01,2.41,4.82,6.02,4.82s4.93-2.47,4.93-4.1c.06-2.41-1.76-3.18-3.62-3.73l-5.03-1.58c-4.65-1.42-8.16-4.1-8.16-9.08,0-7.12,5.69-9.96,11.83-9.96,7.44,0,11.05,3.67,12.26,7.61l-6.57,2.03Z"/>
        <path class="cls-2" d="M119.59,61.58c-9.2,0-14.99-6.46-14.99-17.13,0-10.02,5.85-16.91,14.99-16.91,5.08,0,8.95,1.98,11.5,5.3C125.7,13.89,108.3,0,87.62,0c-8.62,0-16.67,2.41-23.53,6.6h12.17l10,17.32h-9.09v4.28h23.87v5.3l-15.98,21.84h16.53v5.58h-24.41v5.6h9.09l-10,17.32h-12.17c6.86,4.19,14.92,6.61,23.53,6.61,21.57,0,39.57-15.11,44.1-35.31-2.64,4.1-6.92,6.43-12.13,6.43M112.79,44.56c0,8.26,2.63,11.44,6.79,11.44s6.78-3.18,6.78-11.44-2.62-11.44-6.78-11.44-6.79,3.4-6.79,11.44M77.17,33.78v19.87l14.45-19.87h-14.45Z"/>
        <path class="cls-1" d="M159.1,38.87c0-3.07-1.53-4.65-4.11-4.65s-4.1,1.43-6.94,4.1v22.61h-7.88V28.2h7.88v4.87c2.62-2.53,6.18-5.54,10.94-5.54,6.4,0,7.99,4.82,7.99,9.64v23.75h-7.88v-22.06Z"/>
        <path class="cls-1" d="M200.26,53.32c-1.76,4.32-5.26,8.26-12.7,8.26-9.2,0-15-6.46-15-17.13,0-10.02,5.42-16.91,15.05-16.91s13.85,7.39,13.85,16.04v2.95h-21.02c0,3.89,1.31,9.47,6.95,9.47,3.56,0,5.64-2.85,6.19-4.88l6.68,2.2ZM193.58,41.27c0-5.25-2.36-8.26-6.25-8.15-4.81-.11-6.62,3.94-6.89,8.15h13.14Z"/>
        <g>
          <path class="cls-2" d="M141.95,68.67v7.78h-1.75v-7.78h1.75Z"/>
          <path class="cls-2" d="M143.47,76.45v-7.78h2.06l1.62,2.85c.46.82.91,1.79,1.27,2.67h.02c-.1-1.03-.14-2.08-.14-3.26v-2.26h1.62v7.78h-1.85l-1.66-3c-.46-.84-.98-1.84-1.35-2.75h-.05c.06,1.04.08,2.14.08,3.41v2.34h-1.62Z"/>
          <path class="cls-2" d="M151.5,74.63c.46.24,1.2.48,1.95.48.81,0,1.24-.33,1.24-.84s-.37-.76-1.3-1.09c-1.29-.46-2.15-1.18-2.15-2.31,0-1.33,1.12-2.33,2.94-2.33.89,0,1.52.17,1.99.39l-.39,1.41c-.3-.15-.87-.37-1.62-.37s-1.13.36-1.13.75c0,.5.43.72,1.44,1.1,1.37.51,2.01,1.22,2.01,2.32,0,1.3-.99,2.41-3.13,2.41-.89,0-1.77-.24-2.21-.48l.36-1.44Z"/>
          <path class="cls-2" d="M159.43,68.67v4.47c0,1.35.52,2.03,1.41,2.03s1.43-.65,1.43-2.03v-4.47h1.76v4.36c0,2.4-1.21,3.54-3.24,3.54s-3.11-1.1-3.11-3.57v-4.34h1.76Z"/>
          <path class="cls-2" d="M165.55,68.78c.57-.1,1.4-.17,2.34-.17,1.15,0,1.96.17,2.52.62.47.37.73.91.73,1.63,0,.98-.7,1.66-1.37,1.9v.03c.54.22.84.73,1.04,1.44.24.89.47,1.9.62,2.21h-1.8c-.12-.23-.31-.85-.53-1.81-.22-.98-.55-1.24-1.28-1.25h-.52v3.06h-1.74v-7.67ZM167.29,72.12h.69c.88,0,1.4-.44,1.4-1.12s-.48-1.07-1.29-1.07c-.43,0-.67.02-.8.06v2.14Z"/>
          <path class="cls-2" d="M174.3,74.45l-.54,2h-1.82l2.38-7.78h2.3l2.42,7.78h-1.89l-.6-2h-2.24ZM176.27,73.13l-.48-1.65c-.13-.46-.27-1.05-.38-1.5h-.03c-.1.46-.23,1.05-.35,1.5l-.47,1.65h1.72Z"/>
          <path class="cls-2" d="M180.07,76.45v-7.78h2.06l1.62,2.85c.46.82.91,1.79,1.27,2.67h.02c-.1-1.03-.14-2.08-.14-3.26v-2.26h1.62v7.78h-1.85l-1.66-3c-.46-.84-.98-1.84-1.35-2.75h-.05c.06,1.04.08,2.14.08,3.41v2.34h-1.62Z"/>
          <path class="cls-2" d="M193.74,76.23c-.31.15-1.05.34-1.99.34-2.69,0-4.08-1.69-4.08-3.9,0-2.64,1.89-4.11,4.25-4.11.91,0,1.6.18,1.92.33l-.37,1.4c-.35-.15-.84-.29-1.48-.29-1.39,0-2.47.84-2.47,2.57,0,1.55.92,2.53,2.48,2.53.54,0,1.12-.1,1.48-.25l.25,1.39Z"/>
          <path class="cls-2" d="M199.53,73.16h-2.86v1.85h3.2v1.44h-4.95v-7.78h4.79v1.44h-3.04v1.62h2.86v1.43Z"/>
        </g>
        <g>
          <path class="cls-2" d="M140.24,88.49c.46.24,1.2.48,1.95.48.81,0,1.24-.33,1.24-.84s-.37-.76-1.3-1.09c-1.29-.46-2.15-1.18-2.15-2.31,0-1.33,1.12-2.33,2.94-2.33.89,0,1.52.17,1.99.39l-.39,1.41c-.3-.15-.87-.37-1.62-.37s-1.13.36-1.13.75c0,.5.43.72,1.44,1.1,1.37.51,2.01,1.22,2.01,2.32,0,1.3-.99,2.41-3.13,2.41-.89,0-1.77-.24-2.2-.48l.36-1.44Z"/>
          <path class="cls-2" d="M151.05,87.01h-2.86v1.85h3.2v1.44h-4.95v-7.78h4.79v1.44h-3.04v1.62h2.86v1.43Z"/>
          <path class="cls-2" d="M152.58,82.63c.57-.1,1.4-.17,2.34-.17,1.15,0,1.96.17,2.52.62.47.37.73.91.73,1.63,0,.98-.7,1.66-1.37,1.9v.03c.54.22.84.73,1.04,1.44.24.89.47,1.9.62,2.21h-1.8c-.12-.23-.31-.85-.53-1.81-.22-.98-.55-1.24-1.28-1.25h-.52v3.06h-1.74v-7.67ZM154.33,85.97h.69c.88,0,1.4-.44,1.4-1.12s-.48-1.07-1.29-1.07c-.43,0-.67.02-.8.06v2.14Z"/>
          <path class="cls-2" d="M161.21,90.3l-2.49-7.78h1.93l.95,3.29c.27.93.51,1.81.69,2.78h.03c.2-.93.44-1.86.7-2.75l.99-3.32h1.87l-2.62,7.78h-2.06Z"/>
          <path class="cls-2" d="M168.48,82.52v7.78h-1.75v-7.78h1.75Z"/>
          <path class="cls-2" d="M175.7,90.08c-.31.15-1.05.34-1.99.34-2.69,0-4.08-1.69-4.08-3.9,0-2.64,1.89-4.11,4.25-4.11.91,0,1.6.18,1.92.33l-.37,1.4c-.35-.15-.84-.29-1.48-.29-1.39,0-2.47.84-2.47,2.57,0,1.55.92,2.53,2.48,2.53.54,0,1.12-.1,1.48-.25l.25,1.38Z"/>
          <path class="cls-2" d="M181.5,87.01h-2.86v1.85h3.2v1.44h-4.95v-7.78h4.79v1.44h-3.04v1.62h2.86v1.43Z"/>
          <path class="cls-2" d="M183.09,88.49c.46.24,1.2.48,1.95.48.81,0,1.24-.33,1.24-.84s-.37-.76-1.3-1.09c-1.29-.46-2.15-1.18-2.15-2.31,0-1.33,1.12-2.33,2.94-2.33.89,0,1.52.17,1.99.39l-.39,1.41c-.3-.15-.87-.37-1.62-.37s-1.13.36-1.13.75c0,.5.43.72,1.44,1.1,1.37.51,2.01,1.22,2.01,2.32,0,1.3-.99,2.41-3.13,2.41-.89,0-1.77-.24-2.2-.48l.36-1.44Z"/>
        </g>
      </g>
    </g>
  </g>
</svg>