<?xml version="1.0" encoding="UTF-8"?>
<svg id="Capa_2" data-name="Capa 2" xmlns="http://www.w3.org/2000/svg" xmlns:xlink="http://www.w3.org/1999/xlink" viewBox="0 0 148 44.78">
  <defs>
    <style>
      .cls-1 {
        fill: #fff;
      }

      .cls-2 {
        fill: none;
      }

      .cls-3 {
        fill: url(#Degradado_sin_nombre_15);
      }

      .cls-4 {
        opacity: .5;
      }
    </style>
    <linearGradient id="Degradado_sin_nombre_15" data-name="Degradado sin nombre 15" x1="0" y1="30.09" x2="19.04" y2="11.06" gradientUnits="userSpaceOnUse">
      <stop offset="0" stop-color="#5979a9"/>
      <stop offset="1" stop-color="#89a1cc"/>
    </linearGradient>
  </defs>
  <g id="Capa_1-2" data-name="Capa 1">
    <g>
      <path class="cls-3" d="M15.23,7.25v7.61H0v-7.61h15.23ZM15.23,14.86C6.82,14.86,0,21.68,0,30.09h7.61c0-4.21,3.41-7.61,7.61-7.61v7.61h7.61v-15.23h-7.61Z"/>
      <g>
        <path class="cls-1" d="M44.31,29.83h-1.8c-.59,0-1.1-.13-1.52-.4-.42-.27-.74-.64-.96-1.14-.22-.49-.32-1.07-.32-1.74v-.27l.92.97h-1.03c-.3.95-.84,1.67-1.62,2.17-.79.5-1.74.75-2.86.75-1.58,0-2.8-.41-3.66-1.24-.87-.83-1.3-1.94-1.3-3.34,0-1.02.25-1.88.75-2.55.5-.68,1.24-1.19,2.2-1.54.96-.34,2.17-.52,3.6-.52h2.78v-1.3c0-.93-.26-1.65-.77-2.17-.51-.52-1.31-.78-2.39-.78-.89,0-1.62.2-2.2.61-.58.4-1.07.9-1.46,1.49l-1.92-1.74c.51-.87,1.24-1.58,2.17-2.14.93-.56,2.14-.84,3.62-.84,1.97,0,3.49.47,4.56,1.4,1.07.94,1.61,2.26,1.61,3.97v7.71h1.62v2.63ZM39.47,23.07h-2.72c-1.12,0-1.96.18-2.51.53-.55.35-.83.87-.83,1.54v.53c0,.67.24,1.18.71,1.54.47.35,1.1.53,1.89.53.67,0,1.26-.1,1.77-.3.51-.2.92-.48,1.23-.86.31-.37.46-.81.46-1.3v-2.21Z"/>
        <path class="cls-1" d="M52.35,30.18c-1.44,0-2.65-.26-3.65-.77-.99-.51-1.86-1.22-2.58-2.13l2.07-1.89c.57.67,1.21,1.2,1.9,1.59.7.39,1.51.59,2.44.59s1.65-.18,2.11-.55c.46-.36.69-.87.69-1.52,0-.49-.16-.91-.49-1.24-.32-.33-.89-.56-1.7-.68l-1.42-.18c-1.02-.16-1.92-.41-2.69-.77-.77-.35-1.35-.84-1.76-1.46-.4-.62-.61-1.4-.61-2.35,0-1.5.53-2.66,1.58-3.48,1.05-.83,2.43-1.24,4.12-1.24.93,0,1.73.1,2.42.3.69.2,1.3.48,1.83.84.53.36,1.02.8,1.48,1.31l-1.98,1.89c-.39-.47-.91-.88-1.55-1.23-.64-.34-1.37-.52-2.2-.52s-1.52.17-1.95.52c-.43.34-.65.81-.65,1.4s.19,1.03.58,1.33c.38.3.98.51,1.79.65l1.42.18c1.69.26,2.93.75,3.71,1.49.78.74,1.17,1.73,1.17,2.97,0,.98-.25,1.85-.75,2.58-.5.74-1.21,1.31-2.11,1.73-.91.41-1.98.62-3.22.62Z"/>
        <path class="cls-1" d="M66.76,30.18c-1.44,0-2.65-.26-3.65-.77-.99-.51-1.86-1.22-2.58-2.13l2.07-1.89c.57.67,1.21,1.2,1.9,1.59.7.39,1.51.59,2.44.59s1.65-.18,2.11-.55c.46-.36.69-.87.69-1.52,0-.49-.16-.91-.49-1.24-.32-.33-.89-.56-1.7-.68l-1.42-.18c-1.02-.16-1.92-.41-2.69-.77-.77-.35-1.35-.84-1.76-1.46-.4-.62-.61-1.4-.61-2.35,0-1.5.53-2.66,1.58-3.48,1.05-.83,2.43-1.24,4.12-1.24.93,0,1.73.1,2.42.3.69.2,1.3.48,1.83.84.53.36,1.02.8,1.48,1.31l-1.98,1.89c-.39-.47-.91-.88-1.55-1.23-.64-.34-1.37-.52-2.2-.52s-1.52.17-1.95.52c-.43.34-.65.81-.65,1.4s.19,1.03.58,1.33c.38.3.98.51,1.79.65l1.42.18c1.69.26,2.93.75,3.71,1.49.78.74,1.17,1.73,1.17,2.97,0,.98-.25,1.85-.75,2.58-.5.74-1.21,1.31-2.11,1.73-.91.41-1.98.62-3.22.62Z"/>
        <path class="cls-1" d="M78.1,11.85c-.67,0-1.16-.16-1.46-.47-.31-.31-.46-.72-.46-1.21v-.5c0-.49.15-.9.46-1.21.31-.31.79-.47,1.46-.47s1.15.16,1.45.47c.3.32.44.72.44,1.21v.5c0,.49-.15.9-.44,1.21-.3.32-.78.47-1.45.47ZM76.47,29.83v-15.36h3.22v15.36h-3.22Z"/>
        <path class="cls-1" d="M97.8,31.28c0,1.06-.27,1.95-.81,2.67-.54.72-1.38,1.26-2.53,1.61-1.14.35-2.64.53-4.49.53-1.65,0-3-.15-4.03-.44-1.03-.3-1.78-.72-2.24-1.27-.46-.55-.69-1.21-.69-1.98,0-.85.23-1.51.69-1.99.46-.48,1.11-.8,1.93-.96v-.32c-.57-.18-1-.47-1.3-.89-.3-.41-.44-.91-.44-1.48,0-.79.27-1.39.81-1.82.54-.42,1.19-.72,1.93-.9v-.12c-.93-.43-1.63-1.04-2.11-1.83-.48-.79-.72-1.69-.72-2.72s.24-1.96.72-2.75c.48-.79,1.18-1.4,2.1-1.85s2.01-.66,3.29-.66c.53,0,1.03.04,1.49.12.46.08.9.2,1.31.35v-.41c0-.69.17-1.22.5-1.59.33-.37.84-.56,1.51-.56h2.33v2.57h-3.1v.62c.69.47,1.22,1.06,1.58,1.77.36.71.55,1.51.55,2.39,0,1.02-.24,1.93-.72,2.72-.48.79-1.18,1.4-2.1,1.83-.92.43-2.02.65-3.32.65-.37,0-.73-.02-1.08-.06-.34-.04-.65-.1-.93-.18-.37.14-.71.33-1,.58-.3.25-.44.57-.44.96,0,.41.18.71.55.89.36.18.89.27,1.58.27h3.78c1.89,0,3.26.37,4.12,1.12.86.75,1.28,1.79,1.28,3.13ZM94.78,31.63c0-.55-.21-.98-.63-1.28-.42-.31-1.16-.46-2.2-.46h-5.2c-.35.2-.62.45-.78.75-.17.31-.25.64-.25,1.02,0,.61.25,1.11.74,1.51.49.39,1.34.59,2.54.59h2.01c1.26,0,2.2-.18,2.84-.53.63-.35.94-.89.94-1.59ZM89.94,22.27c.94,0,1.68-.22,2.2-.65.52-.43.78-1.08.78-1.95v-.62c0-.87-.26-1.52-.78-1.95-.52-.43-1.26-.65-2.2-.65s-1.68.22-2.2.65c-.52.43-.78,1.08-.78,1.95v.62c0,.87.26,1.52.78,1.95.52.43,1.26.65,2.2.65Z"/>
        <path class="cls-1" d="M103.41,29.83h-3.22v-15.36h3.22v2.54h.15c.33-.83.84-1.52,1.52-2.07.68-.55,1.61-.83,2.79-.83,1.57,0,2.8.52,3.68,1.57.88,1.04,1.31,2.51,1.31,4.4v9.75h-3.22v-9.36c0-1.2-.23-2.1-.69-2.7-.46-.6-1.2-.9-2.2-.9-.57,0-1.11.09-1.61.28-.5.19-.92.48-1.24.87-.32.39-.49.89-.49,1.48v10.34Z"/>
        <path class="cls-1" d="M118.94,11.85c-.67,0-1.16-.16-1.46-.47-.31-.31-.46-.72-.46-1.21v-.5c0-.49.15-.9.46-1.21.31-.31.79-.47,1.46-.47s1.15.16,1.45.47c.3.32.44.72.44,1.21v.5c0,.49-.15.9-.44,1.21-.3.32-.78.47-1.45.47ZM117.32,29.83v-15.36h3.22v15.36h-3.22Z"/>
        <path class="cls-1" d="M125.94,29.83v-12.73h-2.33v-2.63h2.33v-2.54c0-1.24.33-2.21.99-2.91.66-.7,1.63-1.05,2.91-1.05h2.54v2.63h-3.22v3.87h3.22v2.63h-3.22v12.73h-3.22Z"/>
        <path class="cls-1" d="M141.83,23.51l3.07-9.04h3.1l-6.47,18.4c-.24.69-.52,1.24-.84,1.67-.32.42-.74.73-1.24.92-.5.19-1.16.28-1.96.28h-1.86v-2.63h2.6l.89-2.6-5.58-16.04h3.22l3.07,9.04.89,3.34h.15l.97-3.34Z"/>
      </g>
      <g class="cls-4">
        <path class="cls-1" d="M0,44.65v-7.73h3.42c.64,0,1.14.18,1.51.54.37.36.55.85.55,1.45,0,.38-.07.69-.21.93-.14.23-.31.4-.51.52-.2.11-.41.18-.63.2v.07c.16,0,.34.05.52.12.18.07.36.18.53.32.17.14.3.32.41.55.11.23.16.5.16.83,0,.41-.09.79-.26,1.13-.17.34-.41.61-.71.8-.3.2-.64.29-1.03.29H0ZM1.25,37.99v2.19h1.94c.21,0,.38-.04.53-.11.14-.07.25-.17.33-.31.08-.14.12-.31.12-.5v-.35c0-.19-.04-.36-.12-.49-.08-.14-.19-.24-.33-.32-.14-.07-.32-.11-.53-.11h-1.94ZM1.25,41.22v2.35h2.15c.21,0,.4-.04.55-.12.15-.08.27-.19.36-.33s.13-.32.13-.54v-.38c0-.21-.04-.38-.13-.53-.08-.15-.21-.26-.36-.34-.16-.08-.34-.12-.55-.12H1.25Z"/>
        <path class="cls-1" d="M11.31,44.65h-1.25v-3.05l-2.66-4.69h1.42l1.89,3.45h.02l1.86-3.45h1.4l-2.68,4.66v3.07Z"/>
        <path class="cls-1" d="M23.36,44.65h-3.35v-1.02h1.04v-5.7h-1.04v-1.02h3.35v1.02h-1.05v5.7h1.05v1.02Z"/>
        <path class="cls-1" d="M30.87,44.65l-2.53-4.27-.85-1.65h-.03v5.92h-1.2v-7.73h1.41l2.52,4.27.85,1.65h.03v-5.92h1.2v7.73h-1.4Z"/>
        <path class="cls-1" d="M37.82,44.78c-.64,0-1.19-.12-1.65-.36-.46-.24-.85-.56-1.17-.95l.88-.81c.27.33.56.58.89.75.33.17.7.25,1.12.25.5,0,.87-.11,1.12-.34.25-.23.38-.52.38-.89,0-.2-.04-.37-.11-.52-.07-.15-.2-.27-.38-.37-.18-.1-.41-.17-.71-.23l-.69-.12c-.5-.1-.92-.24-1.26-.42-.34-.18-.59-.43-.76-.73s-.25-.65-.25-1.06c0-.46.11-.85.33-1.19.22-.33.54-.59.95-.76.41-.18.89-.27,1.43-.27.58,0,1.09.1,1.52.3.43.2.79.5,1.09.88l-.88.78c-.2-.26-.44-.47-.73-.62-.29-.15-.65-.23-1.07-.23s-.79.09-1.03.27c-.24.18-.36.44-.36.78,0,.21.04.39.13.53.09.14.22.25.4.34.18.09.41.16.68.21l.69.14c.52.1.94.24,1.27.43.33.19.58.43.74.73s.24.64.24,1.06c0,.48-.11.9-.33,1.26-.22.36-.54.64-.96.84-.42.2-.93.3-1.52.3Z"/>
        <path class="cls-1" d="M48.65,43.54v1.11h-5.73v-1.12l4.2-5.51h-3.98v-1.11h5.39v1.12l-4.2,5.51h4.32Z"/>
        <path class="cls-1" d="M54.16,44.78c-.67,0-1.26-.15-1.76-.46-.5-.31-.88-.76-1.16-1.35s-.41-1.32-.41-2.19.14-1.6.41-2.19c.27-.59.66-1.04,1.16-1.35.5-.31,1.08-.46,1.76-.46s1.27.15,1.77.46c.5.31.88.76,1.16,1.35.27.59.41,1.32.41,2.19s-.14,1.59-.41,2.19-.66,1.05-1.16,1.35-1.09.46-1.77.46ZM54.16,43.66c.41,0,.76-.09,1.05-.28.3-.18.53-.45.7-.79s.25-.74.25-1.21v-1.22c0-.47-.08-.88-.25-1.22s-.4-.6-.7-.78c-.3-.18-.65-.27-1.05-.27s-.74.09-1.04.27c-.3.18-.54.44-.7.78s-.25.75-.25,1.22v1.22c0,.47.08.87.25,1.21s.4.6.7.79c.3.19.65.28,1.04.28Z"/>
        <path class="cls-1" d="M64.99,44.65l-2.53-4.27-.85-1.65h-.03v5.92h-1.2v-7.73h1.41l2.52,4.27.85,1.65h.03v-5.92h1.2v7.73h-1.4Z"/>
        <path class="cls-1" d="M74.58,44.65h-4.95v-7.73h4.95v1.11h-3.7v2.16h3.36v1.11h-3.36v2.25h3.7v1.11Z"/>
      </g>
    </g>
    <rect class="cls-2" width="148" height="44.65"/>
  </g>
</svg>